<?xml version="1.0" encoding="utf-8"?>
<svg xmlns="http://www.w3.org/2000/svg" height="32" width="32" viewBox="0 0 32 32">
  <g>
    <path id="path1" transform="rotate(0,16,16) translate(3.05000019073486,0) scale(1,1)  " fill="#111" d="M17.199995,17.970026L18.099958,18.599998 18.099958,30.599998 13.2,30.599998 13.2,29.300003 17.199995,29.300003z M17.099958,17.900002L17.199995,17.900002 17.199995,17.970026z M9.4999914,15.099998C8.9999914,15.099998 8.599967,15.5 8.599967,16 8.599967,16.5 8.9999914,16.900002 9.4999914,16.900002 9.9999905,16.900002 10.400015,16.5 10.400015,16 10.400015,15.5 9.9999905,15.099998 9.4999914,15.099998z M22.099955,12.800003L22.099955,14.599998 25.9,14.599998 25.9,17.900002 22.099955,17.900002 22.099955,19.699997 17.099958,16.300003z M12.999988,1.9000015L13.099963,1.9000015 17.999983,1.9000015 17.999983,13.900002 16.999985,14.599998 16.999985,3.0999985 12.999988,3.0999985z M12.099964,0L12.099964,32 0,30 0,2z" />
  </g>
</svg>

